<svg xmlns="http://www.w3.org/2000/svg" viewBox="0 0 918.34 405.84"><title>tpu-logo</title><path d="M270.8,257.9V219.1h13.8v-5.59h-34v5.59h13.8v38.8Zm27.35-22.2c0-9,4.83-17.36,14.63-17.36s14.63,8.33,14.63,17.36c0,8.84-4.45,17.36-14.63,17.36s-14.63-8.52-14.63-17.36Zm-6.74,0c0,13.49,7.82,23,21.37,23s21.37-9.48,21.37-23c0-13.16-7.89-23-21.37-23s-21.37,9.8-21.37,23Zm60.93,22.2V219.48h.13l14.69,38.42h6.23l14.69-38.42h.13V257.9h6.36V213.51H384.08L370.4,250.39l-13.92-36.88H346V257.9Zm87.52-43.25a23.56,23.56,0,0,0-10-1.91c-13.55,0-23.47,9-23.47,22.77,0,14.12,9.35,23.16,23.41,23.16,2.6,0,6.74-.13,10.11-1.6l-.38-6.17c-2.17,1.34-6.55,2.16-9.67,2.16-9.22,0-16.73-6.93-16.73-17.36,0-10,6.81-17.36,17.05-17.36a17.74,17.74,0,0,1,9.16,2.48l.51-6.17ZM457,257.9V236.15l19.78,21.75H486l-22.51-23.41,20.86-21h-8.46L457,233V213.51h-6.35V257.9Zm45.35,0,21-34.35h.07V257.9h6.36V213.51h-6.56l-21,34.59h-.07V213.51h-6.36V257.9Zm48.66,0,21-34.35H572V257.9h6.36V213.51h-6.55l-21,34.59h-.06V213.51h-6.36V257.9Zm18.32-54.82c-1.21,1.52-5.54,2.35-7.95,2.35s-6.62-.83-7.76-2.35l-.89,5.66c1.52,1,6.42,1.71,8.65,1.71s7.38-.7,8.9-1.71l-1-5.66ZM283.52,331.48h6.36V287.09h-34v44.39h6.36V292.69h21.24v38.79Zm25.19-22.2c0-9,4.83-17.36,14.63-17.36S338,300.25,338,309.28c0,8.84-4.45,17.37-14.62,17.37s-14.63-8.53-14.63-17.37Zm-6.74,0c0,13.49,7.82,23,21.37,23s21.37-9.49,21.37-23c0-13.16-7.89-22.95-21.37-22.95S302,296.12,302,309.28Zm55.58,23c11.39,0,12-15.15,12-26.79V292.69h14.81v38.79h6.36V287.09H363.22v16.09c0,9.48-.39,23.47-6.81,23.47a11.92,11.92,0,0,1-4-.64v5.47a14.42,14.42,0,0,0,5.15.78Zm54.45-.78,21-34.34h.06v34.34h6.36V287.09h-6.55l-21,34.6h-.06v-34.6h-6.36v44.39Zm57,0V292.69h13.81v-5.6h-34v5.6h13.8v38.79Zm48.09,0v-5.59H498.56V311.26h16.86v-5.6H498.56v-13h18.51v-5.6H492.2v44.39Zm15.39,0,12.66-18.82,13.1,18.82h8l-16.41-23.21,14.95-21.18h-7.25l-11.76,17-11.83-17h-7.64l14.89,21.31-16.35,23.08Zm49.36,0V311.26h21.24v20.22h6.36V287.09h-6.36v18.57H581.82V287.09h-6.36v44.39Zm48.85,0,21-34.34h.07v34.34h6.35V287.09h-6.54l-21,34.6h-.06v-34.6h-6.37v44.39Zm59.46-24a12.21,12.21,0,0,1-3.49.44c-8.21,0-10.88-5.28-10.88-13.74v-7.12H669.4v8c0,12.47,6.3,18.5,17.24,18.5a20.63,20.63,0,0,0,3.49-.25v18.19h6.36V287.09h-6.36v20.42Zm45.61,24v-5.59H717.23V311.26h16.85v-5.6H717.23v-13h18.51v-5.6H710.87v44.39Zm44.07-43.25a23.51,23.51,0,0,0-10-1.9c-13.55,0-23.47,9-23.47,22.77,0,14.11,9.35,23.16,23.4,23.16,2.61,0,6.75-.13,10.12-1.61l-.39-6.16c-2.16,1.33-6.55,2.16-9.66,2.16-9.22,0-16.73-6.93-16.73-17.37,0-10,6.81-17.36,17-17.36a17.68,17.68,0,0,1,9.15,2.48l.51-6.17Zm17.12,43.25V309.73l19.77,21.75H826l-22.52-23.4,20.87-21h-8.46l-19,19.52V287.09h-6.37v44.39Zm45.34,0,21-34.34h.06v34.34h6.36V287.09h-6.55l-21,34.6h-.07v-34.6h-6.36v44.39Zm48.66,0,21-34.34H912v34.34h6.36V287.09h-6.55l-21,34.6h-.06v-34.6h-6.36v44.39Zm18.32-54.82c-1.21,1.53-5.54,2.35-8,2.35s-6.61-.82-7.75-2.35l-.9,5.66c1.53,1,6.43,1.72,8.65,1.72s7.38-.7,8.91-1.72l-1-5.66Zm-624.65,84-13.42,26.27H271l-12.91-26.27h-7.44l17,32.82-.57,1.27c-1,2.29-2.61,4.9-6.11,4.9a10.3,10.3,0,0,1-3.05-.51l-.38,5.85a21.79,21.79,0,0,0,4.32.45c6.94,0,9.42-5.79,11.45-9.48l18.38-35.3Zm22.84,44.39V384.84h21.24v20.22H335V360.67h-6.36v18.57H307.44V360.67h-6.36v44.39Zm48.84,0,21-34.34h.06v34.34h6.36V360.67h-6.55l-21,34.6h-.07v-34.6h-6.36v44.39Zm53.24,0c9,0,16.92-2.35,16.92-11.83,0-6.23-4.26-10.17-10.31-10.68v-.13c5.6-1.46,9.16-4.45,9.16-10.55,0-8.14-6.36-11.2-15.58-11.2h-12v44.39Zm-1.34-20.22c5.47,0,11.51,1,11.51,7.82,0,5.92-5.08,7.19-10.87,7.19h-4.77v-15Zm2.55-18.95c3.75,0,8.2,1.33,8.2,6.61,0,6.55-5.28,7.12-11.38,7.12h-3.5V365.89Zm54.12,39.17v-5.59h-18.5V384.84H463.2v-5.6H446.35v-13h18.5v-5.6H440v44.39Zm24.3-38.79c3.88,0,9.79,2,9.79,7.63,0,5.85-5,7.82-8.9,7.82h-6.3V366.27Zm-5.41,38.79V387.32H490c7.94,0,15.71-3.5,15.71-13.35,0-10.12-7.57-13.3-16.67-13.3H477.38v44.39ZM547,361.82a23.56,23.56,0,0,0-10-1.91c-13.55,0-23.46,9-23.46,22.77,0,14.12,9.34,23.16,23.4,23.16,2.61,0,6.74-.13,10.11-1.6l-.38-6.17c-2.16,1.33-6.55,2.16-9.67,2.16-9.22,0-16.72-6.93-16.72-17.36,0-10,6.8-17.36,17-17.36a17.62,17.62,0,0,1,9.16,2.48l.51-6.17Zm17.3,43.24,21-34.34h.06v34.34h6.36V360.67h-6.55l-21,34.6h-.06v-34.6h-6.36v44.39Zm57,0V366.27h13.8v-5.6h-34v5.6H615v38.79Zm48.08,0v-5.59H650.89V384.84h16.86v-5.6H650.89v-13H669.4v-5.6H644.53v44.39Zm28.11,0V366.27h13.81v-5.6h-34v5.6h13.8v38.79Z" fill="#3a3b3c" fill-rule="evenodd"/><path d="M0,267.33H62.68v137.9H0V267.33Zm75.22,75.22H137.9v62.68H75.22V342.55Zm75.22-75.22h62.68v137.9H150.44Z" fill="#3a3b3c" fill-rule="evenodd"/><polygon points="150.44 192.11 213.12 192.11 213.12 254.79 150.44 254.79 150.44 192.11 150.44 192.11" fill="#94bd4f" fill-rule="evenodd"/><polygon points="75.22 192.11 137.9 192.11 137.9 330.01 75.22 330.01 75.22 192.11 75.22 192.11" fill="#94bd4f" fill-rule="evenodd"/><rect y="192.11" width="62.68" height="62.69" fill="#94bd4f"/><polygon points="673.7 108.64 705.55 25.11 597.61 25.11 597.61 192.17 705.55 192.17 673.7 108.64" fill="#7fa94e" fill-rule="evenodd"/><polygon points="597.61 192.17 597.61 167.06 624.85 167.06 597.61 192.17" fill="#3c6039" fill-rule="evenodd"/><rect x="150.44" width="474.41" height="167.06" fill="#94bd4f"/><path d="M377.77,77.92V73a11,11,0,0,0,3.62.57c5.79,0,6.13-12.62,6.13-21.16V37.89h24.84v40h-5.74v-35H393.26V54.46c0,10.5-.57,24.15-10.84,24.15A13.26,13.26,0,0,1,377.77,77.92Z" fill="#fff"/><path d="M426,77.92v-40h22.42v5H431.74v11.7h15.19v5H431.74V72.87h16.68v5Z" fill="#fff"/><path d="M468.43,77.92v-35H456v-5h30.62v5H474.17v35Z" fill="#fff"/><path d="M379.93,128.71V102h3.83v20.8h0L396.41,102h3.94v26.68h-3.82V108.07h0l-12.62,20.64Z" fill="#fff"/><path d="M427.68,106.42a10.64,10.64,0,0,0-5.5-1.49c-6.16,0-10.25,4.44-10.25,10.44,0,6.27,4.51,10.44,10.06,10.44a13.19,13.19,0,0,0,5.81-1.3l.23,3.71a16.07,16.07,0,0,1-6.08.95c-8.45,0-14.07-5.43-14.07-13.92,0-8.26,6-13.69,14.11-13.69a14.11,14.11,0,0,1,6,1.15Z" fill="#fff"/><path d="M439.84,128.71V105.39h-8.3V102H452v3.36h-8.3v23.32Z" fill="#fff"/><path d="M469.16,101.56c8.1,0,12.84,5.89,12.84,13.81,0,8.1-4.7,13.8-12.84,13.8s-12.85-5.7-12.85-13.8C456.31,107.45,461.05,101.56,469.16,101.56Zm0,24.25c6.12,0,8.79-5.13,8.79-10.44s-2.9-10.44-8.79-10.44-8.8,5-8.8,10.44S463,125.81,469.16,125.81Z" fill="#fff"/><path d="M489.11,128.71V102h7c5.47,0,10,1.91,10,8s-4.67,8-9.45,8h-3.74v10.67Zm3.83-23.32v9.29h3.78c2.37,0,5.35-1.19,5.35-4.7s-3.55-4.59-5.88-4.59Z" fill="#fff"/><path d="M512.7,128.71V102h3.82v20.8h0L529.18,102h3.93v26.68h-3.82V108.07h0l-12.61,20.64Z" fill="#fff"/><path d="M542.21,128.71V102H546v20.8h0L558.69,102h3.94v26.68H558.8V108.07h0l-12.61,20.64Z" fill="#fff"/><path d="M199.58,130.8v-79L185.09,64.29l-7.18-9.07,23.16-19h12.06V130.8Z" fill="#fff"/><path d="M228.3,130.8V116.31c4.87-4.34,11-9.62,16.93-15.17,10.43-9.75,27.23-25.06,27.23-40.37,0-8.8-7.72-15-18.15-15-8.54,0-16.4,3.25-21.68,6.09l-1.35-11.65c8-3.38,16.12-5.55,24.79-5.55,17.06,0,30.74,9.07,30.74,26.95,0,11.65-9.48,24.25-18.69,34C265,99,262,102,259.45,104.52c-5.28,5.29-11.92,11-16.66,15.17h45.38V130.8Z" fill="#fff"/><path d="M324.33,34.63c26.15,0,32.1,28.17,32.1,48.9s-5.95,48.9-32.1,48.9-32.1-28.18-32.1-48.9S298.19,34.63,324.33,34.63Zm0,86.69c16.26,0,17.75-26,17.75-37.79s-2.17-37.79-17.75-37.79-17.74,25.87-17.74,37.79S308.08,121.32,324.33,121.32Z" fill="#fff"/></svg>